<svg width="400" height="400" viewBox="0 0 400 400" xmlns="http://www.w3.org/2000/svg">
  <defs>
    <linearGradient id="vitaminCBg" x1="0%" y1="0%" x2="100%" y2="100%">
      <stop offset="0%" style="stop-color:#fff8e1;stop-opacity:1" />
      <stop offset="100%" style="stop-color:#ffcc02;stop-opacity:1" />
    </linearGradient>
  </defs>
  <rect width="400" height="400" fill="url(#vitaminCBg)" stroke="#ffa726" stroke-width="3" rx="12"/>
  <g transform="translate(200,200)">
    <path d="M-25,-80 L-25,-60 L-35,-40 L-35,60 Q-35,70 -25,70 L25,70 Q35,70 35,60 L35,-40 L25,-60 L25,-80 Z" fill="#ff6f00" opacity="0.8"/>
    <rect x="-20" y="-85" width="40" height="10" rx="2" fill="#e65100"/>
    <rect x="-30" y="-20" width="60" height="40" rx="4" fill="#ffffff" opacity="0.9" stroke="#ffa726"/>
    <text x="0" y="5" text-anchor="middle" font-family="Arial" font-size="20" font-weight="bold" fill="#ff6f00">C</text>
    <circle cx="-15" cy="-35" r="3" fill="#ffa726" opacity="0.6"/>
    <circle cx="0" cy="-35" r="3" fill="#ffa726" opacity="0.6"/>
    <circle cx="15" cy="-35" r="3" fill="#ffa726" opacity="0.6"/>
  </g>
  <text x="200" y="340" text-anchor="middle" font-family="Arial, sans-serif" font-size="16" font-weight="bold" fill="#ff6f00">Vitamin C</text>
  <text x="200" y="360" text-anchor="middle" font-family="Arial, sans-serif" font-size="12" fill="#ffa726">1000mg</text>
</svg>
